<svg viewBox="0 0 640 512" xmlns="http://www.w3.org/2000/svg"><path d="M416 31.94C416 21.75 408.1 0 384.1 0c-13.98 0-26.87 9.072-30.89 23.18l-128 448a31.933 31.933 0 0 0-1.241 8.801C223.1 490.3 232 512 256 512c13.92 0 26.73-9.157 30.75-23.22l128-448c.85-2.97 1.25-5.93 1.25-8.84zM176 143.1c0-18.28-14.95-32-32-32-8.188 0-16.38 3.125-22.62 9.376l-112 112C3.125 239.6 0 247.8 0 255.1s3.125 17.3 9.375 23.5l112 112c6.225 6.3 14.425 8.5 22.625 8.5 17.05 0 32-13.73 32-32 0-8.188-3.125-16.38-9.375-22.63L77.25 255.1l89.38-89.38c6.27-5.42 9.37-13.52 9.37-22.62zm464 112c0-8.188-3.125-16.38-9.375-22.63l-112-112C512.4 115.1 504.2 111.1 496 111.1c-17.05 0-32 13.73-32 32 0 8.188 3.125 16.38 9.375 22.63l89.38 89.38-89.38 89.38C467.1 351.6 464 359.8 464 367.1c0 18.28 14.95 32 32 32 8.188 0 16.38-3.125 22.62-9.376l112-112C636.9 272.4 640 264.2 640 255.1z" fill="#567edb" class="fill-000000"></path></svg>