<svg viewBox="0 0 24 24" xml:space="preserve" xmlns="http://www.w3.org/2000/svg" enable-background="new 0 0 24 24"><g id="_icons"><path d="M19 10c-.6 0-1 .4-1 1v3c0 1.1-.9 2-2 2H7.4l1.3-1.3c.4-.4.4-1 0-1.4s-1-.4-1.4 0l-3 3c-.4.4-.4 1 0 1.4l3 3c.2.2.4.3.7.3s.5-.1.7-.3c.4-.4.4-1 0-1.4L7.4 18H16c2.2 0 4-1.8 4-4v-3c0-.6-.4-1-1-1z" fill="#567edb" class="fill-000000"></path><path d="M5 14c.6 0 1-.4 1-1v-3c0-1.1.9-2 2-2h8.6l-1.3 1.3c-.4.4-.4 1 0 1.4.2.2.5.3.7.3s.5-.1.7-.3l3-3c.4-.4.4-1 0-1.4l-3-3c-.4-.4-1-.4-1.4 0s-.4 1 0 1.4L16.6 6H8c-2.2 0-4 1.8-4 4v3c0 .6.4 1 1 1z" fill="#567edb" class="fill-000000"></path></g></svg>