<svg viewBox="0 0 256 256" xmlns="http://www.w3.org/2000/svg"><path fill="none" d="M0 0h256v256H0z"></path><circle cx="128" cy="128" r="68" fill="#567edb" class="fill-000000"></circle><path d="M128 44a8 8 0 0 0 8-8V16a8 8 0 0 0-16 0v20a8 8 0 0 0 8 8ZM57.3 68.6a8.1 8.1 0 0 0 11.3 0 8 8 0 0 0 0-11.3L54.5 43.1a8.1 8.1 0 1 0-11.4 11.4ZM44 128a8 8 0 0 0-8-8H16a8 8 0 0 0 0 16h20a8 8 0 0 0 8-8ZM57.3 187.4l-14.2 14.1a8.1 8.1 0 0 0 0 11.4 8.5 8.5 0 0 0 5.7 2.3 8.3 8.3 0 0 0 5.7-2.3l14.1-14.2a8 8 0 0 0-11.3-11.3ZM128 212a8 8 0 0 0-8 8v20a8 8 0 0 0 16 0v-20a8 8 0 0 0-8-8ZM198.7 187.4a8 8 0 0 0-11.3 11.3l14.1 14.2a8.3 8.3 0 0 0 5.7 2.3 8.5 8.5 0 0 0 5.7-2.3 8.1 8.1 0 0 0 0-11.4ZM240 120h-20a8 8 0 0 0 0 16h20a8 8 0 0 0 0-16ZM193.1 70.9a7.8 7.8 0 0 0 5.6-2.3l14.2-14.1a8.1 8.1 0 0 0-11.4-11.4l-14.1 14.2a8 8 0 0 0 0 11.3 7.8 7.8 0 0 0 5.7 2.3Z" fill="#567edb" class="fill-000000"></path></svg>